# xmcd
# Track frame offsets:
# 150
# 16570
# 30653
# 43922
# 56207
# 71789
# 83985
# 98224
# 109375
# 121961
# 137329
# 150941
#
# Disc length: 2207 seconds
# Revision: 0
# Processed by: cddbd v1.5.1PL2 Copyright (c) Steve Scherf et al.
# Submitted via: VisiTrax 2.9.10.228 - For more info visit www.synapsa.com
#
DISCID=99089d0c
DTITLE=Joe Paul Nichols - Too much Texas in me
DYEAR=2005
DGENRE=Country
TTITLE0=She found something in me
TTITLE1=All I need is you
TTITLE2=Rodeo bum
TTITLE3=Gonna find me a bluebird
TTITLE4=Play it again Sam
TTITLE5=Silver dew on the bluegrass tonight
TTITLE6=Too much Texas in me
TTITLE7=Gotta travel on
TTITLE8=Eleven eighteen Nadine Lane
TTITLE9=Waltz of the angels
TTITLE10=One less than you think
TTITLE11=Little boys prayer
EXTD=
EXTT0=
EXTT1=
EXTT2=
EXTT3=
EXTT4=
EXTT5=
EXTT6=
EXTT7=
EXTT8=
EXTT9=
EXTT10=
EXTT11=
PLAYORDER=
